<?xml version="1.0" encoding="UTF-8"?>
<svg width="1024" height="1024" viewBox="0 0 1024 1024" xmlns="http://www.w3.org/2000/svg">
  <defs>
    <linearGradient id="tile" x1="0" y1="0" x2="0" y2="1">
      <stop offset="0" stop-color="#1b1e26"/>
      <stop offset="0.55" stop-color="#111318"/>
      <stop offset="1" stop-color="#0a0b0e"/>
    </linearGradient>
    <linearGradient id="edge" x1="0" y1="0" x2="0" y2="1">
      <stop offset="0" stop-color="#ffffff" stop-opacity="0.22"/>
      <stop offset="0.18" stop-color="#ffffff" stop-opacity="0.05"/>
      <stop offset="1" stop-color="#ffffff" stop-opacity="0"/>
    </linearGradient>
    <linearGradient id="glyph" x1="0" y1="0" x2="0" y2="1">
      <stop offset="0" stop-color="#b3d1ff"/>
      <stop offset="1" stop-color="#3b82f6"/>
    </linearGradient>
    <filter id="halo" x="-60%" y="-60%" width="220%" height="220%">
      <feGaussianBlur stdDeviation="52"/>
    </filter>
    <filter id="core" x="-40%" y="-40%" width="180%" height="180%">
      <feGaussianBlur stdDeviation="16"/>
    </filter>
    <filter id="drop" x="-20%" y="-20%" width="140%" height="140%">
      <feGaussianBlur stdDeviation="10"/>
    </filter>
  </defs>

  <rect x="112" y="124" width="800" height="800" rx="182" fill="#000000" opacity="0.35" filter="url(#drop)"/>
  <rect x="100" y="100" width="824" height="824" rx="186" fill="url(#tile)"/>
  <rect x="102.5" y="102.5" width="819" height="819" rx="184" fill="none" stroke="url(#edge)" stroke-width="5"/>

  <g filter="url(#halo)" opacity="0.55">
    <path fill="#3b82f6" d="M 346 232 H 596 L 724 360 V 746 Q 724 792 678 792 H 346 Q 300 792 300 746 V 278 Q 300 232 346 232 Z"/>
  </g>
  <g filter="url(#core)" opacity="0.5">
    <path fill="#3b82f6" d="M 346 232 H 596 L 724 360 V 746 Q 724 792 678 792 H 346 Q 300 792 300 746 V 278 Q 300 232 346 232 Z"/>
  </g>
  <g>
    <path fill="url(#glyph)" d="M 346 232 H 596 L 724 360 V 746 Q 724 792 678 792 H 346 Q 300 792 300 746 V 278 Q 300 232 346 232 Z"/>
  </g>
  <g>
    <path fill="#0a0b0e" opacity="0.45" d="M 596 232 V 318 Q 596 360 638 360 H 724 Z"/>
    <rect fill="#0a0b0e" x="360" y="420" width="304" height="28" rx="14"/>
    <rect fill="#0a0b0e" x="360" y="494" width="248" height="28" rx="14"/>
    <rect fill="#0a0b0e" x="360" y="568" width="304" height="28" rx="14"/>
    <rect fill="#0a0b0e" x="360" y="642" width="150" height="28" rx="14"/>
    <rect fill="#0a0b0e" x="534" y="618" width="26" height="76" rx="8"/>
  </g>
</svg>
